<svg xmlns="http://www.w3.org/2000/svg" viewBox="0 0 88.024 86">
  <defs>
    <clipPath clipPathUnits="userSpaceOnUse" id="a">
      <path d="M0 204h250.91V0H0Z"/>
    </clipPath>
  </defs>
  <g clip-path="url(#a)" transform="matrix(.48159 0 0 -.495 -16.645 93.37)">
    <path d="M211.31 43.75h-72.24v15.083h56.333v7H139.07v11.833h56.333v7H139.07v19.453c4.54-5.322 11.29-8.702 18.833-8.702 13.67 0 24.75 11.081 24.75 24.749h-24.75v24.749c-7.544 0-14.294-3.38-18.833-8.702v27.537h72.25Zm.01 126h-72.25v18.874l-104.5-18.131V33.005l104.5-18.131V37.75h72.25c3.31 0 6 2.691 6 6v120c0 3.309-2.69 6-6 6" fill="#cb4a32"/>
    <path d="M161.736 148.416v-24.749h24.75c0 13.668-11.08 24.749-24.75 24.749" fill="#cb4a32"/>
    <path d="M78.788 102.809c4.169-.32 8.24-1.1 10.773 3.223 1.914 3.26 1.753 9.22-.467 11.726-2.871 3.24-6.58 2.778-10.306 2.188Zm-.294-30.68H68.027v58.422c8.075 0 16.109.227 24.113-.153 2.104-.1 4.547-1.664 6.1-3.268 5.944-6.137 5.945-13.782 4.169-21.407-1.583-6.791-5.964-11.57-12.87-13.25-3.44-.836-7.12-.682-11.045-1.005z" fill="#fff" fill-rule="evenodd"/>
  </g>
</svg>
